<?xml version="1.0" encoding="UTF-8"?>
<!DOCTYPE svg PUBLIC "-//W3C//DTD SVG 1.1//EN" "http://www.w3.org/Graphics/SVG/1.1/DTD/svg11.dtd">
<svg fill="rgba(0, 0, 0, 0)" xmlns="http://www.w3.org/2000/svg" version="1.1" width="104px" height="287px" style="shape-rendering:geometricPrecision; text-rendering:geometricPrecision; image-rendering:optimizeQuality; fill-rule:evenodd; clip-rule:evenodd" xmlns:xlink="http://www.w3.org/1999/xlink">
<g><path style="opacity:1" fill="#fefffe" d="M 7.5,3.5 C 36.8333,3.5 66.1667,3.5 95.5,3.5C 95.6666,17.504 95.4999,31.504 95,45.5C 91.1681,93.1481 87.6681,140.815 84.5,188.5C 62.5,188.5 40.5,188.5 18.5,188.5C 14.9242,143.515 11.4242,98.5145 8,53.5C 7.50007,36.8367 7.3334,20.17 7.5,3.5 Z M 11.5,7.5 C 38.1667,7.5 64.8333,7.5 91.5,7.5C 91.6665,19.5046 91.4999,31.5046 91,43.5C 87.2701,90.4882 83.7701,137.488 80.5,184.5C 61.1667,184.5 41.8333,184.5 22.5,184.5C 18.8229,140.198 15.3229,95.8644 12,51.5C 11.5001,36.8371 11.3334,22.1705 11.5,7.5 Z"/></g>
<g><path style="opacity:1" fill="#fefffe" d="M 18.5,215.5 C 40.5,215.5 62.5,215.5 84.5,215.5C 84.5,237.167 84.5,258.833 84.5,280.5C 62.5,280.5 40.5,280.5 18.5,280.5C 18.5,258.833 18.5,237.167 18.5,215.5 Z M 22.5,219.5 C 41.8333,219.5 61.1667,219.5 80.5,219.5C 80.826,238.41 80.4927,257.243 79.5,276C 60.5029,276.5 41.5029,276.667 22.5,276.5C 22.5,257.5 22.5,238.5 22.5,219.5 Z"/></g>
</svg>
